<?xml version="1.0" encoding="UTF-8"?>
<svg version="1.1" xmlns="http://www.w3.org/2000/svg" width="64" height="64">
<path d="M0 0 C1.68600531 2.10219041 2.9083163 3.92103787 4.1875 6.25 C4.52974609 6.83652344 4.87199219 7.42304688 5.22460938 8.02734375 C6.92439517 10.96483766 8.52481742 13.9437243 10 17 C14.05629502 15.83756251 17.31539816 14.28051972 20.84472656 11.97436523 C26.85038874 8.13077558 32.62249718 5.21548273 39.9453125 5.609375 C46.39534464 8.54570677 49.12401967 15.85999779 52.02050781 22.00927734 C53.04369368 24.19155537 53.04369368 24.19155537 54.8359375 26.80078125 C56 29 56 29 55.81396484 30.98071289 C54.74892502 33.62286778 53.62961528 34.17046963 51.140625 35.5078125 C50.35429688 35.93707031 49.56796875 36.36632813 48.7578125 36.80859375 C47.93023437 37.24300781 47.10265625 37.67742188 46.25 38.125 C45.43789063 38.56714844 44.62578125 39.00929687 43.7890625 39.46484375 C39.91918521 41.55104796 36.08378574 43.369562 32 45 C31.195625 45.70125 30.39125 46.4025 29.5625 47.125 C26.46438384 49.39191427 24.7521117 49.34903365 21 49 C20.67 48.34 20.34 47.68 20 47 C19.4328125 47.33257812 18.865625 47.66515625 18.28125 48.0078125 C14.47054757 49.66520705 10.95445215 48.97407461 7 48 C4.15942125 46.29565275 3.2917958 45.09168358 2.44140625 41.91015625 C1.83876267 38.1762512 1.73344657 35.6811921 3.125 32.125 C5.37933865 29.57008286 6.8001048 28.2521329 10 27 C14.29077281 26.80810497 17.79681858 27.27809115 21.5 29.5 C23.68270911 33.13784852 24.03875989 36.79067581 24 41 C23.67 41.99 23.34 42.98 23 44 C24.485 43.505 24.485 43.505 26 43 C25.505 41.02 25.505 41.02 25 39 C25.91523437 38.44570313 26.83046875 37.89140625 27.7734375 37.3203125 C28.97404875 36.58869002 30.17456463 35.85691102 31.375 35.125 C31.97828125 34.76019531 32.5815625 34.39539062 33.203125 34.01953125 C35.70511595 32.49053678 37.91871354 31.08128646 40 29 C37.03 23.72 34.06 18.44 31 13 C28.69 13.66 26.38 14.32 24 15 C24.495 17.97 24.495 17.97 25 21 C23.68 21 22.36 21 21 21 C20.34 20.34 19.68 19.68 19 19 C15.42895561 20.87949705 13.45255699 22.17053157 12 26 C8.4003233 24.80010777 8.13132335 24.01596192 6.30078125 20.81640625 C5.81416016 19.97142578 5.32753906 19.12644531 4.82617188 18.25585938 C4.32666016 17.36705078 3.82714844 16.47824219 3.3125 15.5625 C2.54583008 14.23508789 2.54583008 14.23508789 1.76367188 12.88085938 C-2 6.2831275 -2 6.2831275 -2 4 C-3.98 4 -5.96 4 -8 4 C-8 3.01 -8 2.02 -8 1 C-4.89416417 -0.03527861 -3.21539363 -0.56598735 0 0 Z M35 11 C36.28975172 13.43853057 37.58171525 15.87584412 38.875 18.3125 C39.23980469 19.00279297 39.60460938 19.69308594 39.98046875 20.40429688 C40.51220703 21.40493164 40.51220703 21.40493164 41.0546875 22.42578125 C41.37937012 23.03848877 41.70405273 23.65119629 42.03857422 24.2824707 C42.94547058 25.90258648 43.9701029 27.45515434 45 29 C47.58380177 29.25030977 47.58380177 29.25030977 50 29 C48.5216233 24.98832453 46.60821705 21.42979591 44.4375 17.75 C43.81746094 16.69296875 43.19742188 15.6359375 42.55859375 14.546875 C41.22886375 12.1508512 41.22886375 12.1508512 40 11 C38.33382885 10.95936168 36.66611905 10.957279 35 11 Z M8.1875 33.125 C5.69660052 35.81259963 5.69660052 35.81259963 5.9375 39.125 C6.81293333 42.01645649 6.81293333 42.01645649 8.6875 43.9375 C11.89943934 45.41325591 13.66474802 45.06444212 17 44 C19.0785608 42.42304368 19.0785608 42.42304368 20 40 C19.92777005 36.46073241 19.67194991 34.6951206 17.1875 32.125 C13.39744418 30.17582844 11.51095389 30.61394595 8.1875 33.125 Z " fill="#FFFFFF" transform="translate(8,15)"/>
<path d="M0 0 C1.765625 2.08203125 1.765625 2.08203125 3.25 4.8125 C3.75015625 5.70582031 4.2503125 6.59914063 4.765625 7.51953125 C6 10 6 10 7 13 C5.68 13.33 4.36 13.66 3 14 C2.16121545 12.71186658 1.32913217 11.41936744 0.5 10.125 C0.0359375 9.40570313 -0.428125 8.68640625 -0.90625 7.9453125 C-2 6 -2 6 -2 4 C-3.65 4 -5.3 4 -7 4 C-7 3.01 -7 2.02 -7 1 C-4.39819366 -0.30090317 -2.88262747 -0.40618842 0 0 Z " fill="#FFFFFF" transform="translate(18,15)"/>
</svg>
